<svg version="1.1" xmlns="http://www.w3.org/2000/svg" xmlns:xlink="http://www.w3.org/1999/xlink" width="512.000000pt" height="512.000000pt" viewBox="0,0,256,256"><g fill="#384050" fill-rule="nonzero" stroke="none" stroke-width="1" stroke-linecap="butt" stroke-linejoin="miter" stroke-miterlimit="10" stroke-dasharray="" stroke-dashoffset="0" font-family="none" font-weight="none" font-size="none" text-anchor="none" style="mix-blend-mode: normal"><g transform="translate(0,-0.03623) scale(0.5,0.5)"><g transform="translate(0,512) scale(0.1,-0.1)"><path d="M2403,5105c-136,-25 -265,-79 -378,-160c-76,-54 -182,-165 -226,-238c-19,-30 -45,-62 -59,-70c-50,-30 -140,-132 -175,-198c-78,-150 -82,-260 -14,-539c42,-174 42,-176 49,-430c8,-296 19,-351 99,-515c83,-169 223,-321 374,-405c31,-17 57,-36 57,-41c0,-22 -30,-78 -59,-111c-17,-19 -54,-45 -82,-57l-51,-22l-20,21c-39,42 -57,42 -291,5c-122,-20 -236,-42 -253,-49c-17,-8 -36,-27 -43,-43c-11,-28 -17,-30 -100,-42c-402,-57 -706,-371 -751,-776c-5,-50 -10,-364 -10,-713c0,-669 0,-670 51,-706c22,-15 192,-16 2039,-16c1847,0 2017,1 2039,16c51,36 51,37 51,706c0,349 -5,663 -10,713c-45,401 -337,708 -736,773c-98,16 -104,19 -115,45c-7,16 -26,35 -43,43c-42,18 -468,86 -492,78c-10,-4 -31,-18 -45,-31l-27,-25l-51,23c-30,12 -66,39 -86,62c-37,43 -65,109 -48,114c5,2 45,27 89,55c189,125 332,319 400,545c25,81 27,107 34,348c7,259 7,260 49,435c67,280 66,370 -9,525c-29,61 -54,96 -107,146c-37,36 -75,70 -83,75c-8,5 -37,41 -63,81c-191,285 -562,440 -904,378zM2784,4882c161,-55 277,-146 372,-288c31,-47 68,-93 81,-102c51,-35 107,-88 129,-123c30,-48 54,-132 54,-188c-1,-43 -32,-196 -42,-207c-3,-2 -33,29 -68,71c-103,124 -208,173 -345,162c-77,-6 -127,-24 -193,-69c-136,-94 -262,-100 -394,-17c-98,61 -147,80 -223,86c-137,11 -244,-41 -349,-167c-32,-39 -61,-68 -64,-66c-10,11 -41,164 -42,207c0,56 24,140 54,188c22,35 78,88 129,123c13,9 50,55 81,101c89,135 204,227 351,282c94,36 155,45 277,40c85,-3 124,-9 192,-33zM2261,3956c191,-122 406,-122 597,0c81,51 136,64 195,45c46,-16 128,-104 207,-224l61,-92l-3,-230c-4,-228 -4,-231 -35,-318c-148,-419 -588,-623 -1006,-467c-125,47 -284,179 -360,300c-94,150 -117,251 -117,512v197l31,53c72,122 178,246 229,267c14,6 48,9 76,8c41,-3 66,-13 125,-51zM2485,2421c80,-6 207,0 276,14l36,7l31,-67c18,-38 54,-90 87,-124l55,-58l-204,-142l-205,-141l-206,141l-205,142l55,58c33,34 69,86 87,125l31,66l41,-7c23,-4 77,-11 121,-14zM1740,1750v-410h-110h-110l2,392l3,393l95,16c52,9 101,17 108,18c9,1 12,-87 12,-409zM3513,2139l87,-13v-393v-393h-110h-110v411v411l23,-5c12,-3 61,-12 110,-18zM2251,1880c145,-99 273,-183 286,-186c13,-4 34,-4 46,0c13,3 152,93 308,201l284,195l3,-363c1,-199 0,-368 -3,-375c-3,-10 -131,-12 -617,-10l-613,3l-3,374l-2,373l24,-15c13,-9 143,-98 287,-197zM1320,1680v-340h-76c-70,0 -78,-2 -105,-29l-29,-29v-541v-541h-221h-220l4,628c3,561 5,633 21,687c76,258 276,443 537,494c24,5 54,9 67,10l22,1zM3980,1984c170,-53 311,-175 393,-339c72,-143 70,-121 74,-817l4,-628h-220h-221v539v540l-24,28c-22,25 -32,29 -103,33l-78,5l-3,338l-2,339l52,-7c29,-4 87,-18 128,-31zM3810,670v-470h-93h-93l-13,51c-18,69 -87,142 -151,159c-129,35 -161,46 -235,84c-89,45 -202,150 -313,288c-69,87 -94,106 -145,115c-55,8 -104,-5 -143,-39c-56,-49 -68,-81 -61,-163c8,-90 -5,-136 -49,-179c-41,-40 -77,-50 -247,-71c-141,-17 -166,-25 -216,-62c-37,-28 -81,-113 -81,-155v-28h-330h-330v470v470h1250h1250z"></path><path d="M2372,3177c-19,-22 5,-84 48,-127c79,-79 201,-79 280,0c43,43 67,105 48,127c-8,10 -53,13 -188,13c-135,0 -180,-3 -188,-13z"></path><path d="M1740,878c-54,-37 -74,-72 -74,-128c0,-158 220,-209 285,-66c25,54 24,84 -4,136c-41,77 -138,104 -207,58z"></path></g></g></g></svg>