<?xml version="1.0" standalone="no"?>
<!DOCTYPE svg PUBLIC "-//W3C//DTD SVG 20010904//EN"
 "http://www.w3.org/TR/2001/REC-SVG-20010904/DTD/svg10.dtd">
<svg version="1.0" xmlns="http://www.w3.org/2000/svg"
 width="32.000000pt" height="32.000000pt" viewBox="0 0 32.000000 32.000000"
 preserveAspectRatio="xMidYMid meet">

<g transform="translate(0.000000,32.000000) scale(0.100000,-0.100000)"
fill="#000000" stroke="none">
<path d="M0 160 l0 -160 160 0 160 0 0 160 0 160 -160 0 -160 0 0 -160z m196
107 c4 -4 -12 -7 -35 -7 -23 0 -40 4 -37 9 7 10 61 9 72 -2z m4 -55 c0 -25
-21 -52 -40 -52 -11 0 -24 9 -30 19 -19 36 -12 46 30 46 27 0 40 -4 40 -13z
m-15 -72 c-3 -5 -15 -10 -25 -10 -10 0 -22 5 -25 10 -4 6 7 10 25 10 18 0 29
-4 25 -10z m85 -35 c0 -3 -6 -14 -12 -25 -9 -15 -10 -22 -1 -31 6 -6 9 -18 6
-25 -7 -20 -199 -20 -206 0 -3 7 0 19 6 25 9 9 8 16 -1 31 -6 11 -12 22 -12
25 0 3 50 5 110 5 61 0 110 -2 110 -5z"/>
<path d="M148 178 c9 -9 15 -9 24 0 9 9 7 12 -12 12 -19 0 -21 -3 -12 -12z"/>
</g>
</svg>
