<svg version="1.1" xmlns="http://www.w3.org/2000/svg" xmlns:xlink="http://www.w3.org/1999/xlink" width="512.000000pt" height="512.000000pt" viewBox="0,0,256,256"><g fill="#384050" fill-rule="nonzero" stroke="none" stroke-width="1" stroke-linecap="butt" stroke-linejoin="miter" stroke-miterlimit="10" stroke-dasharray="" stroke-dashoffset="0" font-family="none" font-weight="none" font-size="none" text-anchor="none" style="mix-blend-mode: normal"><g transform="translate(0.01751,0.125) scale(0.5,0.5)"><g transform="translate(0,512) scale(0.1,-0.1)"><path d="M302,5101c-61,-21 -114,-61 -159,-120c-68,-88 -63,92 -61,-2441l3,-2295l22,-47c30,-66 96,-133 162,-165l56,-28h1645h1645l56,28c66,32 132,99 162,165c22,47 22,50 25,872l2,825l549,550c582,583 583,584 616,712c28,108 11,241 -45,338c-59,103 -177,195 -288,225c-62,16 -187,13 -252,-6c-97,-28 -141,-62 -362,-283l-218,-215v387c0,317 -3,393 -14,415c-8,15 -257,269 -553,565l-538,537h-1200c-1136,-1 -1203,-2 -1253,-19zM2682,4475l3,-484l23,-23l23,-23l484,-3l485,-3v-442v-442l-724,-725l-725,-725l-72,-363l-72,-363l20,-27c15,-20 30,-28 59,-30c21,-1 194,26 382,61l344,64l394,394l394,394v-717c0,-482 -3,-726 -11,-745c-14,-38 -57,-83 -96,-99c-48,-21 -3198,-21 -3246,0c-39,16 -82,61 -96,99c-15,40 -15,4534 0,4574c14,37 57,82 94,99c24,11 242,13 1182,14h1152zM3203,4102c-186,-1 -344,0 -350,3c-10,3 -13,82 -13,352v348l350,-350l350,-350zM4708,3540c177,-89 225,-305 103,-466c-20,-27 -43,-50 -51,-52c-8,-1 -112,95 -230,213l-215,216l40,36c66,59 128,83 216,83c65,0 85,-4 137,-30zM4430,3115l215,-215l-55,-55l-55,-55l-220,220l-220,220l50,50c27,27 54,50 60,50c5,0 107,-97 225,-215zM4210,2895l215,-215l-768,-767l-767,-768l-215,215c-118,118 -215,219 -215,225c0,13 1512,1525 1525,1525c6,0 107,-97 225,-215zM2722,1079c-11,-10 -412,-82 -419,-75c-5,5 27,180 69,380l10,49l174,-174c95,-95 170,-176 166,-180z"></path><path d="M653,4228c-28,-13 -46,-58 -37,-92c14,-59 -31,-56 924,-56h877l21,23c32,34 30,89 -4,116c-27,21 -31,21 -893,20c-585,0 -873,-4 -888,-11z"></path><path d="M641,3523c-11,-10 -24,-32 -27,-50c-5,-27 -1,-37 24,-63l30,-30h1302h1302l30,30c25,26 29,36 24,63c-3,18 -16,40 -27,50c-20,16 -98,17 -1329,17c-1231,0 -1309,-1 -1329,-17z"></path><path d="M631,2814c-28,-35 -26,-67 3,-101l24,-28h1312h1312l24,28c29,34 31,66 3,101l-20,26h-1319h-1319z"></path><path d="M639,2121c-36,-36 -37,-73 -4,-106l24,-25h860h860l20,26c35,45 26,95 -20,119c-24,13 -150,15 -869,15h-842z"></path><path d="M649,1437c-44,-34 -47,-89 -7,-127c21,-20 33,-20 675,-20h654l24,25c16,15 25,36 25,55c0,19 -9,40 -25,55l-24,25h-653c-498,-1 -657,-4 -669,-13z"></path></g></g></g></svg>