<svg version="1.1" xmlns="http://www.w3.org/2000/svg" xmlns:xlink="http://www.w3.org/1999/xlink" width="512.000000pt" height="512.000000pt" viewBox="0,0,256,256"><g fill="#384050" fill-rule="nonzero" stroke="none" stroke-width="1" stroke-linecap="butt" stroke-linejoin="miter" stroke-miterlimit="10" stroke-dasharray="" stroke-dashoffset="0" font-family="none" font-weight="none" font-size="none" text-anchor="none" style="mix-blend-mode: normal"><g transform="translate(0.075,-0.04763) scale(0.5,0.5)"><g transform="translate(0,512) scale(0.1,-0.1)"><path d="M2465,3824c-213,-24 -373,-89 -516,-207c-159,-132 -263,-339 -285,-564l-7,-73h295h294l10,78c25,189 137,312 284,312c78,0 125,-16 171,-57c52,-47 76,-95 91,-182c22,-126 -15,-239 -133,-411c-82,-120 -140,-185 -583,-650l-376,-395v-192v-193h875h875v230v230h-480c-264,0 -480,3 -480,6c0,11 254,298 396,449c300,317 418,487 476,690c30,105 32,312 4,419c-80,304 -310,472 -691,506c-108,10 -159,10 -220,4z"></path></g></g></g></svg>