<svg version="1.1" xmlns="http://www.w3.org/2000/svg" xmlns:xlink="http://www.w3.org/1999/xlink" width="512.000000pt" height="512.000000pt" viewBox="0,0,256,256"><g fill="#384050" fill-rule="nonzero" stroke="none" stroke-width="1" stroke-linecap="butt" stroke-linejoin="miter" stroke-miterlimit="10" stroke-dasharray="" stroke-dashoffset="0" font-family="none" font-weight="none" font-size="none" text-anchor="none" style="mix-blend-mode: normal"><g transform="translate(-0.14989,0) scale(0.5,0.5)"><g transform="translate(0,512) scale(0.1,-0.1)"><path d="M2144,3008c-332,-535 -499,-811 -498,-828c2,-46 25,-295 30,-317l4,-23h480h480v-265v-265h290h290v265v265h130h130v225v225h-130h-130v760v760h-288h-289zM2640,2660v-370h-216c-123,0 -214,4 -212,9c5,14 423,731 426,731c1,0 2,-166 2,-370z"></path></g></g></g></svg>