<svg version="1.1" xmlns="http://www.w3.org/2000/svg" xmlns:xlink="http://www.w3.org/1999/xlink" width="512.000000pt" height="512.000000pt" viewBox="0,0,256,256"><g fill="#384050" fill-rule="nonzero" stroke="none" stroke-width="1" stroke-linecap="butt" stroke-linejoin="miter" stroke-miterlimit="10" stroke-dasharray="" stroke-dashoffset="0" font-family="none" font-weight="none" font-size="none" text-anchor="none" style="mix-blend-mode: normal"><g transform="translate(-0.06522,-0.03246) scale(0.5,0.5)"><g transform="translate(0,512) scale(0.1,-0.1)"><path d="M2085,4474c-709,-76 -1277,-596 -1417,-1297c-32,-161 -32,-433 0,-594c130,-650 619,-1140 1272,-1274c161,-33 433,-34 595,-1c242,48 455,141 644,280l74,54l496,-495c436,-436 501,-496 534,-502c60,-11 107,3 148,44c41,41 55,88 44,149c-6,32 -66,97 -501,533l-495,496l56,79c142,198 229,398 277,639c32,158 32,432 0,592c-129,648 -623,1144 -1267,1273c-98,20 -368,34 -460,24zM2510,4131c251,-57 446,-165 631,-350c186,-185 300,-394 355,-651c26,-119 26,-381 0,-500c-55,-257 -169,-466 -355,-651c-185,-186 -394,-299 -651,-355c-126,-27 -392,-25 -516,4c-259,61 -452,167 -635,351c-186,185 -300,394 -355,651c-26,119 -26,381 0,500c56,259 167,462 355,651c182,183 383,294 630,349c121,26 148,29 311,24c95,-2 174,-10 230,-23z"></path></g></g></g></svg>