<svg version="1.1" xmlns="http://www.w3.org/2000/svg" xmlns:xlink="http://www.w3.org/1999/xlink" width="512.000000pt" height="512.000000pt" viewBox="0,0,256,256"><g fill="#384050" fill-rule="nonzero" stroke="none" stroke-width="1" stroke-linecap="butt" stroke-linejoin="miter" stroke-miterlimit="10" stroke-dasharray="" stroke-dashoffset="0" font-family="none" font-weight="none" font-size="none" text-anchor="none" style="mix-blend-mode: normal"><g transform="translate(0.1417,-0.04082) scale(0.5,0.5)"><g transform="translate(0,512) scale(0.1,-0.1)"><path d="M2385,3733c-89,-14 -201,-49 -284,-89c-204,-99 -340,-297 -341,-496v-48h269h269l7,40c8,49 52,110 99,139c86,53 225,49 306,-10c128,-93 126,-340 -3,-427c-68,-46 -98,-52 -273,-52h-164v-204v-203l168,-5c139,-4 176,-9 223,-27c114,-44 179,-142 179,-271c0,-180 -125,-290 -315,-278c-130,9 -218,78 -252,200l-16,58h-270h-270l6,-75c19,-226 144,-400 362,-505c147,-72 229,-91 420,-97c182,-6 294,8 432,56c156,54 300,167 378,296c98,165 110,396 28,565c-39,82 -169,207 -261,252l-73,35l78,49c145,89 236,207 264,342c7,35 9,98 6,162c-8,157 -47,256 -143,359c-96,104 -235,179 -402,217c-66,15 -366,27 -427,17z"></path></g></g></g></svg>