<svg version="1.1" xmlns="http://www.w3.org/2000/svg" xmlns:xlink="http://www.w3.org/1999/xlink" width="512.000000pt" height="512.000000pt" viewBox="0,0,256,256"><g fill="#384050" fill-rule="nonzero" stroke="none" stroke-width="1" stroke-linecap="butt" stroke-linejoin="miter" stroke-miterlimit="10" stroke-dasharray="" stroke-dashoffset="0" font-family="none" font-weight="none" font-size="none" text-anchor="none" style="mix-blend-mode: normal"><g transform="translate(-0.08235,-0.03934) scale(0.5,0.5)"><g transform="translate(0,512) scale(0.1,-0.1)"><path d="M1407,4889c-48,-4 -125,-15 -170,-24c-180,-36 -429,-138 -463,-190c-38,-57 11,-145 80,-145c18,0 71,17 117,39c188,87 359,124 564,124c336,-1 646,-125 908,-362c69,-63 82,-71 117,-71c34,0 48,8 107,61c220,200 444,314 703,360c118,21 345,16 470,-10c761,-161 1206,-877 1044,-1681c-84,-413 -309,-836 -684,-1287c-458,-550 -1147,-1097 -1578,-1253l-63,-23l-72,28c-513,199 -1272,836 -1727,1449c-324,437 -503,845 -550,1251c-28,244 5,489 94,713c20,49 36,104 36,123c0,79 -106,121 -163,63c-46,-46 -116,-246 -154,-439c-24,-127 -24,-430 0,-579c100,-596 472,-1223 1090,-1837c457,-455 987,-826 1354,-949l91,-30l84,26c356,110 913,501 1377,965c880,880 1246,1772 1046,2544c-129,496 -505,896 -996,1059c-495,165 -1010,74 -1427,-251l-84,-65l-36,31c-61,51 -241,170 -311,205c-100,51 -245,102 -354,125c-85,18 -303,43 -347,39c-8,0 -55,-4 -103,-9z"></path><path d="M447,4439c-9,-5 -24,-24 -33,-41c-41,-80 38,-168 120,-134c70,29 88,105 37,157c-23,22 -39,29 -68,29c-21,0 -46,-5 -56,-11z"></path><path d="M1174,4001c-12,-5 -31,-22 -43,-37c-21,-26 -21,-32 -21,-465v-439l29,-32c24,-27 36,-33 71,-33c35,0 47,6 71,33l29,32v170v170h105h105v-174c0,-173 0,-173 26,-199c34,-34 75,-42 113,-22c61,31 61,32 61,497c0,405 -1,424 -20,456c-26,43 -64,57 -111,43c-63,-19 -69,-38 -69,-231v-170h-105h-105v170v170l-27,30c-30,32 -75,45 -109,31z"></path><path d="M2100,3997c-94,-26 -173,-98 -206,-186c-26,-66 -34,-698 -10,-755c27,-65 101,-83 157,-37c22,18 24,27 29,148l5,128l102,3l101,3l4,-125c3,-122 4,-126 30,-153c42,-41 100,-39 139,5l30,33l-3,362c-3,354 -4,363 -26,408c-64,131 -219,204 -352,166zM2253,3770c26,-30 27,-33 27,-150v-120h-105h-105l1,103c0,127 12,166 59,190c46,23 87,15 123,-23z"></path><path d="M2694,3995c-17,-9 -36,-27 -43,-41c-16,-35 -16,-873 0,-908c15,-33 71,-59 108,-51c16,3 39,17 52,31c23,25 24,32 29,235l5,210l110,-222c112,-226 136,-259 188,-259c34,0 79,31 93,65c21,51 21,840 0,890c-27,64 -102,81 -157,36c-24,-19 -24,-23 -29,-238l-5,-218l-111,220c-62,121 -120,228 -131,237c-28,26 -73,31 -109,13z"></path><path d="M3465,4001c-11,-5 -29,-19 -40,-31c-19,-21 -20,-38 -23,-455c-2,-272 1,-442 7,-459c6,-14 25,-35 43,-47c30,-18 46,-20 178,-17c124,3 152,7 195,26c63,29 119,82 153,147c27,50 27,50 30,314c4,312 -2,340 -79,426c-76,82 -123,98 -299,102c-80,2 -154,-1 -165,-6zM3777,3777l28,-27l3,-233c2,-143 -1,-244 -7,-260c-17,-43 -66,-67 -138,-67h-63v311v311l75,-4c66,-3 78,-7 102,-31z"></path><path d="M1143,2766l-28,-24l-3,-441l-3,-440l30,-33c24,-27 36,-33 71,-33c35,0 47,6 71,33l29,32v277v276l54,-59c49,-54 56,-59 96,-59c40,0 47,5 96,59l54,59v-276v-277l29,-32c24,-27 36,-33 71,-33c35,0 47,6 71,33l29,32v426c0,359 -2,429 -15,454c-19,37 -43,50 -91,50c-42,0 -57,-14 -174,-159c-36,-44 -67,-80 -70,-80c-3,0 -34,36 -70,80c-119,148 -132,159 -178,159c-29,0 -49,-7 -69,-24z"></path><path d="M2150,2771c-62,-26 -126,-83 -158,-144l-27,-52l-3,-357l-3,-357l30,-33c24,-27 36,-33 71,-33c35,0 47,6 71,33c28,32 29,35 29,147v115h100h100v-115c0,-112 1,-115 29,-147c24,-27 36,-33 71,-33c35,0 47,6 71,33l30,33l-3,357c-3,348 -4,358 -26,399c-59,111 -158,173 -272,172c-39,0 -83,-8 -110,-18zM2311,2580c37,-21 49,-63 49,-180v-110h-100h-100v110c0,116 11,158 47,179c23,13 79,14 104,1z"></path><path d="M2757,2779c-45,-27 -47,-43 -47,-493v-426l29,-32l29,-33h159c145,0 162,2 205,24c63,31 119,86 149,147c24,48 24,53 24,329c0,271 -1,281 -23,322c-36,68 -83,114 -147,145c-58,27 -66,28 -210,28c-83,0 -158,-5 -168,-11zM3061,2580c44,-24 49,-56 49,-294v-226l-29,-32c-26,-30 -35,-33 -100,-36l-71,-4v301v301h66c36,0 74,-5 85,-10z"></path><path d="M3507,2779c-45,-27 -47,-43 -47,-493v-426l29,-32l29,-33h217h217l29,33c16,18 29,44 29,58c0,33 -25,81 -49,94c-11,5 -83,10 -160,10h-141v100v100h80c97,0 135,16 156,66c18,44 10,77 -28,109c-27,23 -38,25 -119,25h-89v99v100l146,3l146,3l29,33c16,18 29,44 29,58c0,33 -25,81 -49,94c-26,13 -430,13 -454,-1z"></path></g></g></g></svg>