<?xml version="1.0" standalone="no"?>
<!DOCTYPE svg PUBLIC "-//W3C//DTD SVG 20010904//EN"
 "http://www.w3.org/TR/2001/REC-SVG-20010904/DTD/svg10.dtd">
<svg version="1.0" xmlns="http://www.w3.org/2000/svg"
 width="16.000000pt" height="16.000000pt" viewBox="0 0 16.000000 16.000000"
 preserveAspectRatio="xMidYMid meet">

<g transform="translate(0.000000,16.000000) scale(0.100000,-0.100000)"
fill="#000000" stroke="none">
<path d="M0 80 l0 -80 80 0 80 0 0 80 0 80 -80 0 -80 0 0 -80z m100 23 c0 -5
-5 -15 -10 -23 -9 -13 -11 -13 -20 0 -15 22 -12 30 10 30 11 0 20 -3 20 -7z
m28 -72 c3 -19 -1 -21 -47 -21 -43 0 -51 3 -51 18 0 26 3 27 52 26 36 -1 44
-5 46 -23z"/>
</g>
</svg>
