<svg version="1.1" xmlns="http://www.w3.org/2000/svg" xmlns:xlink="http://www.w3.org/1999/xlink" width="512.000000pt" height="512.000000pt" viewBox="0,0,256,256"><g fill="#384050" fill-rule="nonzero" stroke="none" stroke-width="1" stroke-linecap="butt" stroke-linejoin="miter" stroke-miterlimit="10" stroke-dasharray="" stroke-dashoffset="0" font-family="none" font-weight="none" font-size="none" text-anchor="none" style="mix-blend-mode: normal"><g transform="translate(0.0668,-0.07343) scale(0.5,0.5)"><g transform="translate(0,512) scale(0.1,-0.1)"><path d="M2072,4246c-82,-16 -161,-45 -239,-88c-28,-16 -267,-201 -530,-412l-478,-382l-47,50c-58,64 -135,111 -215,131c-50,13 -105,16 -265,13c-191,-3 -205,-4 -234,-25c-68,-49 -64,40 -64,-1319c0,-1219 0,-1228 21,-1270c15,-32 32,-48 65,-64c42,-21 55,-22 252,-18c185,4 213,7 264,27c99,39 189,115 243,205c9,15 21,13 130,-25c237,-81 562,-152 845,-185c179,-21 996,-32 1097,-15c195,33 343,181 375,375c10,62 4,140 -17,211c-5,17 4,24 59,49c176,76 290,285 258,469c-6,34 -14,71 -17,82c-5,17 4,24 59,49c82,35 169,118 213,201c50,96 62,199 36,326l-5,29h398c227,0 427,5 464,11c269,42 438,315 357,574c-49,156 -190,279 -353,305c-34,6 -370,10 -794,10h-735l-255,256c-266,266 -335,325 -442,373c-135,62 -306,83 -446,57zM2351,3931c91,-31 136,-65 288,-220l145,-146l-290,-5c-252,-4 -293,-7 -321,-23c-38,-20 -73,-82 -73,-128c0,-49 38,-106 85,-129c41,-20 62,-20 1279,-20c1366,0 1280,4 1327,-62c50,-70 26,-174 -50,-216l-39,-22h-938c-926,0 -938,0 -980,-21c-32,-15 -48,-32 -65,-65c-34,-71 -15,-136 55,-188c26,-20 44,-21 379,-26c396,-6 388,-4 429,-83c34,-68 14,-139 -56,-191c-26,-20 -44,-21 -379,-26c-344,-5 -353,-6 -383,-27c-91,-65 -80,-204 21,-253c37,-18 62,-20 221,-20c205,0 232,-7 272,-76c40,-68 19,-145 -52,-198c-25,-19 -45,-21 -229,-26c-189,-5 -204,-6 -233,-27c-62,-45 -80,-126 -43,-193c26,-46 63,-69 133,-80c69,-11 102,-32 128,-83c34,-68 14,-140 -56,-191c-27,-20 -39,-21 -469,-21c-294,0 -482,4 -562,13c-329,36 -589,94 -892,199l-103,36v813v814l530,424c292,233 547,432 568,442c117,56 238,65 353,25zM536,3233c67,-48 64,7 64,-1019c0,-916 0,-928 -21,-970c-30,-62 -80,-84 -192,-84h-87v1051v1051l103,-4c86,-2 107,-6 133,-25z"></path></g></g></g></svg>